# xmcd CD database file
#
# Track frame offsets:
#	150
#	20266
#	34868
#	54946
#	71765
#	104362
#	138352
#	155799
#	171765
#	185414
#
# Disc length: 2685 seconds
#
# Revision: 0
# Processed by: cddbd v1.5.1PL2 Copyright (c) Steve Scherf et al.
# Submitted via: CDex 1.51
#
DISCID=840a7b0a
DTITLE=Eric Clapton - Time Pieces ~ The Best Of Eric Clapton
DYEAR=1982
DGENRE=Blues
TTITLE0=I Shot The Sheriff
TTITLE1=After Midnight
TTITLE2=Knockin' On Heaven's Door
TTITLE3=Wonderful Tonight
TTITLE4=Layla
TTITLE5=Cocaine (Live)
TTITLE6=Lay Down Sally
TTITLE7=Willie And THe Hand Jive
TTITLE8=Promises
TTITLE9=Swing Low Sweet Chariot
EXTD=YEAR: 1982
EXTT0=
EXTT1=
EXTT2=
EXTT3=
EXTT4=
EXTT5=
EXTT6=
EXTT7=
EXTT8=
EXTT9=
PLAYORDER=
